<svg viewBox="0 0 512 512" xmlns="http://www.w3.org/2000/svg">
  <g id="icon">
    <path fill="#c0e021" d="M 210.8 36 C 204.1 45.3 187.4 73.6 170.1 91.7 C 152.8 109.8 123.4 122 107.1 144.6 C 90.7 167.2 79.3 200.3 72 227.1 C 64.7 253.9 64.3 279.2 63.3 305.4 C 62.3 331.6 65.6 371.2 66 384.3 L 125.3 404.8 C 124.9 391.6 121.6 352 122.7 325.8 C 123.7 299.6 124.1 274.3 131.4 247.5 C 138.7 220.7 150.1 187.6 166.4 165 C 182.8 142.5 212.1 130.2 229.4 112.1 C 246.7 94 263.4 65.7 270.2 56.4 Z"/>
    <path fill="#c0e021" d="M 385.1 96 C 384.8 107.3 382.1 139.5 383.5 163.5 C 384.9 187.5 396.1 212.6 393.6 240 C 391.1 267.3 379.2 301.1 368.5 327.5 C 357.7 354 344.2 377 329.1 398.6 C 313.9 420.2 286 447.3 277.4 457.1 L 332.3 476 C 340.9 466.2 368.8 439.1 383.9 417.5 C 399.1 395.9 412.6 372.9 423.3 346.4 C 434.1 320 446 286.2 448.5 258.9 C 451 231.5 439.8 206.4 438.3 182.4 C 436.9 158.4 439.7 126.2 440 114.9 Z"/>
    <path fill="#c0e021" d="M 272.8 145.3 L 331.3 196.9 L 342 267 L 304.3 318.7 L 238.5 350.8 L 187.2 321.5 L 177.9 256.9 L 206.8 197.2 L 238.9 161.8 Z"/>
  </g>
</svg>
